<svg width="1142" height="468" viewBox="0 0 1142 468" fill="none" xmlns="http://www.w3.org/2000/svg">
<path d="M567.343 335.223C606.05 335.223 637.428 330.155 637.428 323.902C637.428 317.65 606.05 312.582 567.343 312.582C528.635 312.582 497.257 317.65 497.257 323.902C497.257 330.155 528.635 335.223 567.343 335.223Z" fill="#6C63FF"/>
<path d="M569.61 223.642L640.226 139.23C645.392 133.712 649.467 127.184 652.219 120.02C654.971 112.856 656.345 105.196 656.264 97.4764C656.183 89.7572 654.647 82.1304 651.745 75.0313C648.843 67.9323 644.631 61.5 639.35 56.1019C634.068 50.7038 627.822 46.4454 620.965 43.57C614.109 40.6945 606.778 39.2584 599.391 39.3434C592.004 39.4285 584.705 41.0331 577.911 44.0657C571.117 47.0982 564.962 51.4993 559.796 57.0178C554.515 51.6196 548.268 47.3613 541.412 44.4859C534.555 41.6104 527.224 40.1742 519.837 40.2593C512.45 40.3443 505.151 41.9489 498.357 44.9815C491.563 48.0141 485.408 52.4152 480.242 57.9337C475.076 63.4521 471 69.9797 468.249 77.1438C465.497 84.308 464.122 91.9683 464.204 99.6875C464.285 107.407 465.821 115.034 468.723 122.133C471.625 129.232 475.837 135.664 481.118 141.062L559.682 223.642" fill="#6C63FF"/>
<path d="M382.088 43.6475H1V404.721H382.088V43.6475Z" stroke="#3F3D56" stroke-width="2" stroke-miterlimit="10"/>
<path d="M1141 1H759.912V362.073H1141V1Z" stroke="#3F3D56" stroke-width="2" stroke-miterlimit="10"/>
<path d="M387.604 217.879C387.604 217.879 447.169 195.979 472.54 225.948C497.911 255.916 568.507 208.658 568.507 208.658" stroke="#3F3D56" stroke-width="2" stroke-miterlimit="10"/>
<path d="M871.851 225.947C871.851 225.947 860.82 198.284 785.812 223.642C710.803 249 604.908 247.847 578.434 208.658L649.051 124.246C654.217 118.727 658.292 112.2 661.044 105.036C663.795 97.8715 665.17 90.2112 665.089 82.492C665.007 74.7728 663.472 67.146 660.569 60.0469C657.667 52.9479 653.455 46.5157 648.174 41.1175C642.893 35.7194 636.646 31.461 629.79 28.5856C622.934 25.7102 615.603 24.274 608.216 24.359C600.828 24.4441 593.529 26.0487 586.736 29.0813C579.942 32.1139 573.786 36.515 568.62 42.0334C557.954 31.1313 543.581 25.1031 528.662 25.2749C513.742 25.4467 499.499 31.8043 489.066 42.9493C478.633 54.0942 472.864 69.1136 473.028 84.7031C473.193 100.293 479.277 115.176 489.943 126.078L568.507 208.658" stroke="#3F3D56" stroke-width="2" stroke-miterlimit="10"/>
<path d="M576.29 325.815C614.997 325.815 646.375 320.747 646.375 314.494C646.375 308.242 614.997 303.174 576.29 303.174C537.582 303.174 506.204 308.242 506.204 314.494C506.204 320.747 537.582 325.815 576.29 325.815Z" stroke="#3F3D56" stroke-width="2" stroke-miterlimit="10"/>
<path d="M568.834 403.043C599.306 403.043 624.008 399.053 624.008 394.131C624.008 389.21 599.306 385.219 568.834 385.219C538.362 385.219 513.66 389.21 513.66 394.131C513.66 399.053 538.362 403.043 568.834 403.043Z" fill="#6C63FF"/>
<path d="M568.834 468C589.423 468 606.113 465.304 606.113 461.978C606.113 458.653 589.423 455.957 568.834 455.957C548.245 455.957 531.554 458.653 531.554 461.978C531.554 465.304 548.245 468 568.834 468Z" fill="#6C63FF"/>
<path d="M576.29 395.104C606.761 395.104 631.463 391.114 631.463 386.192C631.463 381.27 606.761 377.28 576.29 377.28C545.818 377.28 521.116 381.27 521.116 386.192C521.116 391.114 545.818 395.104 576.29 395.104Z" stroke="#3F3D56" stroke-width="2" stroke-miterlimit="10"/>
<path d="M576.29 462.024C596.879 462.024 613.569 459.328 613.569 456.002C613.569 452.677 596.879 449.981 576.29 449.981C555.701 449.981 539.01 452.677 539.01 456.002C539.01 459.328 555.701 462.024 576.29 462.024Z" stroke="#3F3D56" stroke-width="2" stroke-miterlimit="10"/>
<path d="M223.377 232.237C243.635 232.237 260.057 215.077 260.057 193.91C260.057 172.742 243.635 155.582 223.377 155.582C203.12 155.582 186.698 172.742 186.698 193.91C186.698 215.077 203.12 232.237 223.377 232.237Z" fill="#2F2E41"/>
<path d="M205.868 213.273C205.868 213.273 193.92 240.916 190.507 241.808C187.093 242.7 218.668 258.75 218.668 258.75C218.668 258.75 224.642 224.865 227.202 223.082C229.762 221.299 205.868 213.273 205.868 213.273Z" fill="#9F616A"/>
<path d="M223.788 233.782C237.456 233.782 248.536 222.205 248.536 207.923C248.536 193.641 237.456 182.063 223.788 182.063C210.12 182.063 199.041 193.641 199.041 207.923C199.041 222.205 210.12 233.782 223.788 233.782Z" fill="#9F616A"/>
<path d="M244.514 404.721H139.281C142.8 391.362 146.561 378.118 148.679 370.764C149.749 367.076 150.4 364.863 150.4 364.863C150.4 364.863 229.766 382.694 231.464 383.593C232.42 384.658 233.266 385.825 233.99 387.074C236.472 390.878 240.432 397.413 244.514 404.721Z" fill="#2F2E41"/>
<path d="M113.704 152.637L88.1028 111.618C88.1028 111.618 94.4337 68.589 85.9 76.6144C77.3664 84.6398 74.6658 117.049 74.6658 117.049L104.317 164.229L113.704 152.637Z" fill="#9F616A"/>
<path d="M345.82 227.541L368.861 225.757C368.861 225.757 396.169 195.439 397.876 205.248C399.582 215.057 375.688 236.458 375.688 236.458L344.113 240.025L345.82 227.541Z" fill="#9F616A"/>
<path d="M177.706 236.458V227.541C177.706 227.541 155.519 212.381 156.372 209.706C157.226 207.031 154.665 205.248 154.665 205.248C154.665 205.248 152.105 201.681 152.105 200.789C152.105 199.898 148.692 199.006 148.692 199.006L127.358 173.146C127.358 173.146 115.411 148.178 112.85 149.07C110.29 149.962 96.6364 155.312 98.3432 158.879C100.05 162.446 147.839 239.133 147.839 239.133C147.839 239.133 150.399 256.075 154.665 256.075C158.932 256.075 177.706 236.458 177.706 236.458Z" fill="#3F3D56"/>
<path d="M234.882 247.158C234.882 247.158 253.656 246.267 254.51 247.158C255.363 248.05 267.31 247.158 267.31 247.158C267.31 247.158 299.738 239.133 302.298 236.458C304.858 233.783 347.527 222.19 349.234 227.541C350.94 232.891 355.207 243.591 350.94 245.375C346.673 247.158 231.469 277.476 231.469 277.476L234.882 247.158Z" fill="#3F3D56"/>
<path d="M210.546 169.43C218.928 169.43 225.724 162.329 225.724 153.57C225.724 144.811 218.928 137.711 210.546 137.711C202.163 137.711 195.368 144.811 195.368 153.57C195.368 162.329 202.163 169.43 210.546 169.43Z" fill="#2F2E41"/>
<path d="M190.309 144.98C190.309 141.059 191.699 137.278 194.21 134.365C196.72 131.452 200.175 129.614 203.906 129.206C203.38 129.149 202.853 129.12 202.325 129.12C198.299 129.12 194.439 130.791 191.592 133.765C188.746 136.739 187.147 140.773 187.147 144.98C187.147 149.186 188.746 153.22 191.592 156.194C194.439 159.168 198.299 160.839 202.325 160.839C202.853 160.839 203.38 160.81 203.906 160.753C200.175 160.345 196.72 158.507 194.21 155.594C191.699 152.681 190.309 148.9 190.309 144.98V144.98Z" fill="#2F2E41"/>
<path d="M227.644 201.643C241.614 201.643 252.94 194.542 252.94 185.783C252.94 177.024 241.614 169.924 227.644 169.924C213.673 169.924 202.347 177.024 202.347 185.783C202.347 194.542 213.673 201.643 227.644 201.643Z" fill="#2F2E41"/>
<path d="M198.614 227.095C198.614 227.095 190.933 233.337 189.227 234.228C187.52 235.12 177.28 226.203 175.573 226.203C173.866 226.203 151.678 252.954 151.678 252.954C151.678 252.954 155.802 257.917 151.678 283.272C150.132 292.781 147.064 333.436 147.064 338.786C147.064 344.136 130.344 357.284 145.705 368.877C161.066 380.469 234.455 392.953 235.309 385.819C236.162 378.686 226.775 359.96 231.042 351.042C235.309 342.125 235.309 309.132 235.309 309.132L240.429 274.355L244.696 246.712C244.696 246.712 224.642 240.916 222.935 240.916C221.228 240.916 213.548 253.4 198.614 227.095Z" fill="#3F3D56"/>
<path d="M967.606 141.927L950.144 142.635L951.014 166.095L968.477 165.388L967.606 141.927Z" fill="#6C63FF"/>
<path d="M888.833 224.091C888.833 224.091 864.651 212.018 865.038 222.444C865.425 232.871 889.414 239.731 889.414 239.731L888.833 224.091Z" fill="#FFB9B9"/>
<path d="M1001.29 362.073H886.577C888.971 350.339 893.526 336.185 897.089 325.984C899.913 317.916 902.097 312.314 902.097 312.314C915.124 296.961 934.031 296.569 951.768 300.361C953.886 300.811 955.993 301.318 958.067 301.883C958.31 301.94 958.552 302.01 958.795 302.079C962.942 303.197 966.969 304.488 970.774 305.779C977.337 308.015 983.261 310.274 988.048 311.807C990.455 312.639 992.929 313.245 995.439 313.617C995.988 313.678 996.541 313.701 997.093 313.686C998.991 313.605 1000.3 315.737 1001.15 319.46C1003.07 327.863 1002.63 344.415 1001.29 362.073Z" fill="#2F2E41"/>
<path d="M978.658 119.942C978.658 119.942 991.953 141.593 997.136 146.605C1002.32 151.616 987.738 162.649 987.738 162.649L961.641 166.317C961.641 166.317 961.969 141.503 960.625 138.947C959.281 136.391 978.658 119.942 978.658 119.942Z" fill="#FFB9B9"/>
<path d="M955.974 148.272C955.974 148.272 961.35 158.497 966.34 158.295C971.329 158.093 997.136 146.605 998.238 142.644C999.34 138.683 1006.79 171.015 1006.79 171.015L943.639 287.136L928.236 276.012L935.699 207.833L941.829 171.036L955.974 148.272Z" fill="#6C63FF"/>
<path d="M1000.57 252.196C997.959 257.489 996.629 263.369 996.693 269.322C996.703 269.583 996.712 269.843 996.735 270.104C997.332 282.167 1001.58 296.118 1003.11 306.264C1004.22 313.542 1003.9 318.854 999.827 320.103C989.945 323.114 1001.27 325.265 963.036 338.562C924.805 351.859 918.133 340.382 918.036 337.775C917.939 335.168 923.45 315.365 922.155 314.113C920.859 312.86 904.025 330.511 898.939 328.106C893.853 325.702 898.359 312.466 898.359 312.466C898.359 312.466 909.816 284.59 909.575 278.073C909.333 271.557 926.93 240.821 926.93 240.821L938.899 159.407C938.899 159.407 943.501 148.778 949.689 147.222C953.588 146.375 957.648 147.147 961.012 149.374L950.657 173.289L939.731 215.502L941.559 231.091C941.559 231.091 954.264 203.165 962.608 192.384C970.952 181.604 988.743 156.082 988.743 156.082C988.743 156.082 992.897 141.437 989.761 137.061C986.625 132.672 1002.84 132.015 1009.75 150.009C1013.42 159.546 1019.37 173.768 1023.09 187.009C1026.42 198.74 1027.98 209.707 1024.69 215.975C1019.67 225.551 1007.02 238.138 1000.57 252.196Z" fill="#575A89"/>
<path opacity="0.1" d="M1024.69 215.975C1019.67 225.551 1007.02 238.138 1000.57 252.196C998.883 245.855 996.828 239.295 996.828 239.295C996.828 239.295 988.947 195.233 1012.26 183.846C1016.12 183.456 1019.98 184.584 1023.09 187.01C1026.42 198.74 1027.98 209.707 1024.69 215.975Z" fill="black"/>
<path d="M932.151 213.198L912.387 219.22L884.946 220.332L882.123 245.248L927.22 248.642C927.22 248.642 938.484 215.552 932.151 213.198Z" fill="#575A89"/>
<path d="M964.378 296.972C964.378 296.972 937.938 301.555 943.973 309.869C950.007 318.183 973.43 309.443 973.43 309.443L964.378 296.972Z" fill="#FFB9B9"/>
<path opacity="0.1" d="M996.734 270.104C997.332 282.167 1001.58 296.118 1003.11 306.264C994.688 314.593 986.678 321.941 983.66 322.063C977.423 322.316 967.396 321.417 963.703 322.872C960.009 324.327 957.843 299.613 957.843 299.613C957.843 299.613 960.047 291.692 969.881 287.378C976.518 284.459 989.241 276.542 996.734 270.104Z" fill="black"/>
<path d="M1011.97 176.026C1011.97 176.026 1033.08 172.56 1031.94 209.155C1030.8 245.75 1034.16 269.109 1025.67 275.98C1017.18 282.851 989.606 313.99 983.37 314.243C977.133 314.496 967.106 313.597 963.413 315.052C959.719 316.507 957.553 291.793 957.553 291.793C957.553 291.793 959.757 283.872 969.591 279.558C979.424 275.243 1002.59 259.946 1002.4 254.733C1002.2 249.519 996.538 231.474 996.538 231.474C996.538 231.474 988.657 187.413 1011.97 176.026Z" fill="#575A89"/>
<path d="M960.044 152.002C975.211 152.002 987.506 139.154 987.506 123.306C987.506 107.458 975.211 94.6111 960.044 94.6111C944.878 94.6111 932.583 107.458 932.583 123.306C932.583 139.154 944.878 152.002 960.044 152.002Z" fill="#FFB9B9"/>
<path d="M941.554 82.1778C940.891 82.7742 940.098 83.1901 939.245 83.3886C938.816 83.4684 938.375 83.3679 938.017 83.1089C937.66 82.85 937.414 82.4537 937.335 82.0065C936.842 83.4384 935.924 84.6684 934.715 85.5178C933.433 86.2164 931.449 85.6306 931.264 84.1314C931.077 85.2697 930.595 86.3327 929.871 87.2051C929.493 87.6225 928.973 87.8673 928.424 87.8865C927.874 87.9057 927.34 87.6977 926.937 87.3076C927.498 90.5156 927.152 93.8147 927.328 97.0707C927.504 100.327 928.335 103.779 930.689 105.92C934.123 109.042 939.286 108.271 943.802 107.68C944.485 107.53 945.194 107.571 945.857 107.797C947.548 108.55 947.471 111.01 947.494 112.931C947.632 116.3 948.908 119.51 951.097 121.99C953.285 124.469 956.243 126.058 959.446 126.475C961.239 126.764 963.068 126.297 964.532 125.178C965.814 124.042 966.469 122.191 967.938 121.338C970.328 119.95 973.227 121.974 974.975 124.172C976.722 126.369 978.444 129.072 981.151 129.475C984.732 130.007 987.459 126.194 988.797 122.683C990.642 117.763 991.527 112.506 991.397 107.223C991.268 101.939 990.128 96.7366 988.044 91.9212C980.568 74.8929 955.03 72.1996 941.554 82.1778Z" fill="#2F2E41"/>
</svg>
